<?xml version="1.0" encoding="UTF-8" standalone="no"?>
<svg
   width="180"
   height="180"
   version="1.0"
   viewBox="0 -410 138.6 148.69562"
   id="svg192"
   sodipodi:docname="Latin_small_letter_m_with_retroflex_hook.svg"
   inkscape:version="1.2.2 (b0a8486, 2022-12-01)"
   xml:space="preserve"
   xmlns:inkscape="http://www.inkscape.org/namespaces/inkscape"
   xmlns:sodipodi="http://sodipodi.sourceforge.net/DTD/sodipodi-0.dtd"
   xmlns="http://www.w3.org/2000/svg"
   xmlns:svg="http://www.w3.org/2000/svg"><defs
     id="defs196" /><sodipodi:namedview
     id="namedview194"
     pagecolor="#ffffff"
     bordercolor="#666666"
     borderopacity="1.0"
     inkscape:showpageshadow="2"
     inkscape:pageopacity="0.0"
     inkscape:pagecheckerboard="0"
     inkscape:deskcolor="#d1d1d1"
     showgrid="false"
     inkscape:zoom="1.3339427"
     inkscape:cx="250.38557"
     inkscape:cy="137.93696"
     inkscape:window-width="1680"
     inkscape:window-height="1066"
     inkscape:window-x="0"
     inkscape:window-y="25"
     inkscape:window-maximized="0"
     inkscape:current-layer="svg192"
     showguides="true" /><path
     id="path814"
     style="font-style:normal;font-variant:normal;font-weight:normal;font-stretch:normal;font-size:180px;line-height:0%;font-family:'Times New Roman';-inkscape-font-specification:'Times New Roman, ';text-align:center;letter-spacing:0px;word-spacing:0px;text-anchor:middle;display:inline;fill:#000000;fill-opacity:1;stroke:none;stroke-width:0.907361px;stroke-linecap:butt;stroke-linejoin:miter;stroke-opacity:1"
     d="m 112.41723,-344.58641 c 0,-6.6457 -0.58483,-11.4838 -1.75447,-14.5143 -3.29634,-8.5065 -9.11794,-12.7598 -17.464963,-12.7598 -5.15708,0 -9.96867,1.5684 -14.43458,4.7052 -3.03045,2.1798 -6.72555,5.7952 -11.08521,10.8459 -2.28611,-10.3673 -8.42671,-15.5511 -18.421901,-15.5511 -5.58246,0 -10.89917,2.1267 -15.949931,6.3799 -1.01016,0.8507 -4.14689,3.9078 -9.4103,9.1712 v -15.5511 h -3.42923 l -22.0107002,8.9319 1.19621995,2.871 c 2.07346005,-0.7975 3.85449005,-1.1962 5.34310005,-1.1962 2.71149,0 4.38627,1.5418 5.0242902,4.6254 0.47846,2.2862 0.71766,7.4697 0.71766,15.551 v 27.9122 c 0,4.4659 -0.34553,7.4965 -1.0366402,9.0915 -1.3292,3.0304 -4.67868,4.5455 -10.04841005,4.5455 v 2.871 H 35.778465 v -2.871 c -3.93429,0 -6.56598,-0.3721 -7.8951,-1.1165 -2.65833,-1.4886 -3.98749,-5.6621 -3.98749,-12.5205 v -39.1567 c 2.33928,-2.871 5.74185,-5.5027 10.20782,-7.8951 2.87097,-1.5418 5.715421,-2.3129 8.533221,-2.3129 4.2001,0 7.46987,1.7013 9.80914,5.104 1.754491,2.5519 2.631701,6.8318 2.631701,12.8395 v 31.4212 c 0,4.3596 -0.13287,6.9913 -0.39868,7.8951 -1.169711,3.8279 -4.997691,5.7419 -11.483901,5.7419 v 2.871 h 36.923671 v -2.871 c -3.6684,0 -6.3001,-0.4252 -7.8951,-1.2759 -2.02031,-1.0633 -3.26976,-2.8443 -3.74821,-5.3431 -0.15949,-0.8507 -0.23912,-3.1901 -0.23912,-7.018 v -34.8502 l -0.15973,-3.4293 0.15973,-0.8772 c 7.01791,-6.6458 13.29137,-9.9687 18.82059,-9.9687 4.62546,0 7.94839,1.7013 9.9687,5.104 1.43545,2.3924 2.15315,6.5925 2.15315,12.6002 l 4e-5,46.0153 c 0,12.6535 3.376703,22.0106 8.332313,28.0715 4.95567,6.0609 11.39792,9.0915 19.32688,9.0915 3.02291,0 5.77334,-0.5583 8.25119,-1.6748 3.36985,-1.4354 5.05478,-3.5621 5.05478,-6.3799 0,-1.8077 -0.59475,-3.4026 -1.78415,-4.7848 -1.18933,-1.3292 -2.62638,-1.9938 -4.3113,-1.9938 -1.18934,0 -2.50263,0.3455 -3.93973,1.0367 -1.04074,0.4785 -2.67617,1.8076 -4.90618,3.9874 -2.42828,2.3393 -4.43517,3.509 -6.02092,3.509 -3.02291,0 -5.03005,-2.1532 -6.02123,-6.4596 -0.49552,-2.1267 -0.74332,-7.1243 -0.74332,-14.9929 z"
     sodipodi:nodetypes="ccsccsscccccscssccccccsccscsscccccccscccscccsscscsccsccc" /></svg>
